name analog
datacolumns 19
datarows 41
range 0.0 0.02
endheader
time	ground_force_vx	ground_force_vy	ground_force_vz	ground_force_px	ground_force_py	ground_force_pz	l_ground_force_vx	l_ground_force_vy	l_ground_force_vz	l_ground_force_px	l_ground_force_py	l_ground_force_pz	ground_torque_x	ground_torque_y	ground_torque_z	l_ground_torque_x	l_ground_torque_y	l_ground_torque_z
0.0	-0.0	-0.0	-0.0	0.3522070944309234	54.10678482055664	-425.0061950683594	0.0946554020047187	-51.45626068115234	-379.0391845703125	-0.0	-0.0	-0.0	-0.0	-0.0	-0.0	84945.3671875	-19739.1171875	2842.619873046875
0.0005	-0.0	-0.0	-0.0	-0.1406692564487457	55.26997756958008	-427.1982727050781	-0.431795984506607	-51.36198806762695	-377.945068359375	-0.0	-0.0	-0.0	-0.0	-0.0	-0.0	84349.5625	-18449.951171875	2626.746337890625
0.001	-0.0	-0.0	-0.0	-0.7560853362083435	56.4751205444336	-431.5684509277344	-1.838587045669556	-51.27928161621094	-378.5986633300781	-0.0	-0.0	-0.0	-0.0	-0.0	-0.0	84002.4296875	-17124.09765625	2242.046875
0.0015	-0.0	-0.0	-0.0	-1.5633350610733032	57.264137268066406	-432.8135070800781	-2.9330697059631348	-51.715145111083984	-378.7101745605469	-0.0	-0.0	-0.0	-0.0	-0.0	-0.0	83634.796875	-16059.6748046875	2017.7037353515625
0.002	-0.0	-0.0	-0.0	-3.0331573486328125	58.99605178833008	-436.6824035644531	-4.451900005340576	-52.15124130249024	-380.24755859375	-0.0	-0.0	-0.0	-0.0	-0.0	-0.0	83625.0234375	-14832.7109375	1524.2938232421875
0.0025	-0.0	-0.0	-0.0	-4.464600086212158	60.20962524414063	-437.0521240234375	-5.766201019287109	-52.7334098815918	-380.7392578125	-0.0	-0.0	-0.0	-0.0	-0.0	-0.0	83475.609375	-13649.32421875	1270.188232421875
0.003	-0.0	-0.0	-0.0	-6.248705863952637	61.449462890625	-437.43695068359375	-7.149143218994141	-53.79316711425781	-383.53265380859375	-0.0	-0.0	-0.0	-0.0	-0.0	-0.0	83469.9375	-12212.8134765625	790.8296508789062
0.0035	-0.0	-0.0	-0.0	-8.141010284423828	62.67008972167969	-436.8684997558594	-9.05362319946289	-54.44776916503906	-385.46337890625	-0.0	-0.0	-0.0	-0.0	-0.0	-0.0	83177.0703125	-10781.4228515625	318.2980041503906
0.004	-0.0	-0.0	-0.0	-9.720202445983888	63.717018127441406	-433.7198181152344	-11.00519561767578	-55.46601867675781	-387.7428283691406	-0.0	-0.0	-0.0	-0.0	-0.0	-0.0	83157.5390625	-9526.75	-288.8916015625
0.0045000000000000005	-0.0	-0.0	-0.0	-11.019336700439451	64.43392944335938	-435.11767578125	-12.727500915527344	-56.29264831542969	-386.2871398925781	-0.0	-0.0	-0.0	-0.0	-0.0	-0.0	82468.5859375	-8575.255859375	-708.9620971679688
0.005	-0.0	-0.0	-0.0	-12.757102966308594	64.58727264404297	-431.5719909667969	-14.02596950531006	-57.01886749267578	-387.5582885742188	-0.0	-0.0	-0.0	-0.0	-0.0	-0.0	82357.4375	-7397.61376953125	-1064.3154296875
0.0055	-0.0	-0.0	-0.0	-13.602897644042969	65.02574157714844	-429.8200073242188	-15.122824668884276	-57.74826431274414	-387.4116516113281	-0.0	-0.0	-0.0	-0.0	-0.0	-0.0	81865.890625	-6628.3564453125	-1257.271484375
0.006	-0.0	-0.0	-0.0	-14.59079360961914	64.69892883300781	-427.8710632324219	-15.841726303100586	-58.21308898925781	-387.723876953125	-0.0	-0.0	-0.0	-0.0	-0.0	-0.0	81297.609375	-5431.27734375	-1332.7978515625
0.006500000000000001	-0.0	-0.0	-0.0	-15.30119514465332	64.79143524169922	-425.3737182617188	-15.97244358062744	-58.95248794555664	-385.6822814941406	-0.0	-0.0	-0.0	-0.0	-0.0	-0.0	80680.1875	-4499.4111328125	-1465.792236328125
0.007	-0.0	-0.0	-0.0	-15.836424827575684	65.1050796508789	-424.8878173828125	-16.54677963256836	-59.47361373901367	-384.546875	-0.0	-0.0	-0.0	-0.0	-0.0	-0.0	80079.3046875	-3423.406005859375	-1481.895751953125
0.0075	-0.0	-0.0	-0.0	-16.41177749633789	64.98493194580078	-424.3281555175781	-17.078964233398438	-60.020973205566406	-384.96490478515625	-0.0	-0.0	-0.0	-0.0	-0.0	-0.0	79738.7109375	-2824.469482421875	-1571.3519287109375
0.008	-0.0	-0.0	-0.0	-16.765871047973633	64.61953735351562	-423.1095581054688	-17.087255477905273	-60.231239318847656	-382.4709777832031	-0.0	-0.0	-0.0	-0.0	-0.0	-0.0	79289.6640625	-2038.86865234375	-1599.645263671875
0.0085	-0.0	-0.0	-0.0	-17.212055206298828	65.24066925048828	-422.5963439941406	-17.703960418701172	-60.950138092041016	-382.5036926269531	-0.0	-0.0	-0.0	-0.0	-0.0	-0.0	78895.7578125	-1435.78125	-1971.75341796875
0.009000000000000001	-0.0	-0.0	-0.0	-17.52330207824707	65.47021484375	-420.6581115722656	-18.413406372070312	-61.4257698059082	-382.3365478515625	-0.0	-0.0	-0.0	-0.0	-0.0	-0.0	78793.1015625	-660.5894775390625	-1968.3934326171875
0.0095	-0.0	-0.0	-0.0	-18.112253189086918	65.59242248535156	-419.5777587890625	-19.61276626586914	-61.967227935791016	-383.428955078125	-0.0	-0.0	-0.0	-0.0	-0.0	-0.0	78295.75	-53.83776473999024	-2284.1552734375
0.01	-0.0	-0.0	-0.0	-18.411352157592773	66.27198791503906	-418.0024719238281	-20.715808868408203	-62.31644821166992	-382.8230285644531	-0.0	-0.0	-0.0	-0.0	-0.0	-0.0	78217.09375	403.6311950683594	-2404.915771484375
0.0105	-0.0	-0.0	-0.0	-18.992664337158203	66.4889907836914	-415.3214416503906	-21.42546272277832	-62.75436019897461	-382.6416931152344	-0.0	-0.0	-0.0	-0.0	-0.0	-0.0	77779.0859375	692.634033203125	-2654.631103515625
0.011	-0.0	-0.0	-0.0	-20.12253761291504	66.4957275390625	-414.2800903320313	-22.35511779785156	-62.88150787353516	-381.1059875488281	-0.0	-0.0	-0.0	-0.0	-0.0	-0.0	77523.609375	1306.218505859375	-2717.06005859375
0.0115	-0.0	-0.0	-0.0	-20.831687927246094	66.49334716796875	-411.2657775878906	-22.674081802368164	-63.44731903076172	-381.8039855957031	-0.0	-0.0	-0.0	-0.0	-0.0	-0.0	77088.171875	1572.84521484375	-2923.91845703125
0.012	-0.0	-0.0	-0.0	-21.053680419921875	66.17638397216797	-409.4927368164063	-23.376934051513672	-63.85658264160156	-379.7218017578125	-0.0	-0.0	-0.0	-0.0	-0.0	-0.0	76808.703125	2061.44775390625	-2981.670654296875
0.0125	-0.0	-0.0	-0.0	-21.1030216217041	65.95649719238281	-405.80377197265625	-23.242225646972656	-63.85017013549805	-378.8548583984375	-0.0	-0.0	-0.0	-0.0	-0.0	-0.0	76450.765625	2133.18212890625	-3043.109619140625
0.013000000000000001	-0.0	-0.0	-0.0	-21.226900100708008	66.26932525634766	-403.3177490234375	-23.557302474975582	-64.2129135131836	-378.2997741699219	-0.0	-0.0	-0.0	-0.0	-0.0	-0.0	75983.328125	2634.841552734375	-2985.1474609375
0.0135	-0.0	-0.0	-0.0	-21.4105224609375	66.45240783691406	-401.21240234375	-23.19639205932617	-64.5263442993164	-377.5900268554688	-0.0	-0.0	-0.0	-0.0	-0.0	-0.0	75396.9765625	2975.465087890625	-2955.288818359375
0.014	-0.0	-0.0	-0.0	-21.321311950683597	67.07135772705078	-398.7110900878906	-22.88458824157715	-65.09307861328125	-374.8307800292969	-0.0	-0.0	-0.0	-0.0	-0.0	-0.0	75024.125	3369.051513671875	-2762.835205078125
0.0145	-0.0	-0.0	-0.0	-21.049474716186523	66.80393981933594	-397.3274536132813	-22.75022315979004	-65.1786880493164	-374.110595703125	-0.0	-0.0	-0.0	-0.0	-0.0	-0.0	74738.5703125	3434.427978515625	-2702.4990234375
0.015	-0.0	-0.0	-0.0	-21.361377716064453	67.3438491821289	-393.4526977539063	-22.672168731689453	-65.6684799194336	-372.534423828125	-0.0	-0.0	-0.0	-0.0	-0.0	-0.0	74238.3984375	3381.824462890625	-2583.03369140625
0.0155	-0.0	-0.0	-0.0	-20.475515365600582	67.4773941040039	-391.8464050292969	-22.30459976196289	-66.16030883789062	-373.3934020996094	-0.0	-0.0	-0.0	-0.0	-0.0	-0.0	74162.5234375	3747.958251953125	-2479.538818359375
0.016	-0.0	-0.0	-0.0	-20.428136825561523	67.60273742675781	-388.6766357421875	-22.175296783447266	-66.80938720703125	-373.6016845703125	-0.0	-0.0	-0.0	-0.0	-0.0	-0.0	73804.3515625	3671.835693359375	-2303.2431640625
0.0165	-0.0	-0.0	-0.0	-20.47230529785156	68.36502075195312	-386.0296325683594	-21.91623306274414	-67.30345153808594	-372.9031372070313	-0.0	-0.0	-0.0	-0.0	-0.0	-0.0	73800.8203125	3737.9267578125	-2255.923828125
0.017	-0.0	-0.0	-0.0	-21.18285751342773	68.00566101074219	-380.1798400878906	-22.039194107055664	-68.05510711669922	-372.7065124511719	-0.0	-0.0	-0.0	-0.0	-0.0	-0.0	73573.2578125	3614.890380859375	-2138.380126953125
0.0175	-0.0	-0.0	-0.0	-21.364809036254883	68.54127502441406	-377.7274169921875	-22.000274658203125	-68.45137023925781	-374.26611328125	-0.0	-0.0	-0.0	-0.0	-0.0	-0.0	73863.6171875	3767.722412109375	-1988.09130859375
0.018000000000000002	-0.0	-0.0	-0.0	-21.90089225769043	67.9179458618164	-372.0784912109375	-21.819034576416016	-69.42274475097656	-373.43646240234375	-0.0	-0.0	-0.0	-0.0	-0.0	-0.0	73817.078125	3776.0712890625	-1902.6241455078125
0.0185	-0.0	-0.0	-0.0	-22.033462524414062	68.31768798828125	-368.7259521484375	-22.04739570617676	-70.03543090820312	-373.7849731445313	-0.0	-0.0	-0.0	-0.0	-0.0	-0.0	73623.609375	3473.837158203125	-1916.8272705078125
0.019	-0.0	-0.0	-0.0	-22.70387077331543	68.63081359863281	-364.8316955566406	-21.37929916381836	-70.35428619384766	-373.0582275390625	-0.0	-0.0	-0.0	-0.0	-0.0	-0.0	73507.2890625	3655.31884765625	-1798.3760986328125
0.0195	-0.0	-0.0	-0.0	-23.149513244628903	68.76447296142578	-362.0104064941406	-21.24702262878418	-70.79376220703125	-371.33209228515625	-0.0	-0.0	-0.0	-0.0	-0.0	-0.0	73298.65625	3632.433349609375	-1606.3428955078125
0.02	-0.0	-0.0	-0.0	-23.240144729614254	68.85297393798828	-360.0680236816406	-20.801921844482425	-70.70226287841797	-371.497314453125	-0.0	-0.0	-0.0	-0.0	-0.0	-0.0	73097.90625	3451.95263671875	-1636.1295166015625
